G04*
G04 #@! TF.GenerationSoftware,Altium Limited,Altium Designer,19.1.1 (5)*
G04*
G04 Layer_Physical_Order=2*
G04 Layer_Color=16711680*
%FSLAX25Y25*%
%MOIN*%
G70*
G01*
G75*
%ADD23C,0.01400*%
%ADD24C,0.01000*%
%ADD25C,0.02000*%
%ADD33C,0.02500*%
%ADD34C,0.13700*%
%ADD35C,0.05000*%
%ADD36C,0.00100*%
%ADD37C,0.15700*%
%ADD38C,0.02800*%
%ADD39C,0.06000*%
%ADD40C,0.08000*%
%ADD41C,0.08000*%
G36*
X517300Y492410D02*
Y327610D01*
X349800D01*
Y409010D01*
X349800Y492410D01*
X362959D01*
X363034Y491910D01*
X362097Y491626D01*
X360560Y490804D01*
X359212Y489698D01*
X358106Y488351D01*
X357284Y486813D01*
X356778Y485145D01*
X356607Y483410D01*
X356778Y481675D01*
X357284Y480007D01*
X358106Y478469D01*
X359212Y477122D01*
X360560Y476016D01*
X362097Y475194D01*
X363765Y474688D01*
X363971Y474668D01*
Y469152D01*
X363765Y469132D01*
X362097Y468626D01*
X360560Y467804D01*
X359212Y466698D01*
X358106Y465351D01*
X357284Y463813D01*
X356778Y462145D01*
X356607Y460410D01*
X356778Y458675D01*
X357284Y457007D01*
X358106Y455469D01*
X359212Y454122D01*
X360560Y453016D01*
X362097Y452194D01*
X363765Y451688D01*
X365500Y451517D01*
X367235Y451688D01*
X368903Y452194D01*
X370441Y453016D01*
X371788Y454122D01*
X372894Y455469D01*
X373716Y457007D01*
X374130Y458371D01*
X386655D01*
X388058Y456968D01*
X388720Y456526D01*
X389500Y456371D01*
X412155D01*
X414961Y453565D01*
Y447350D01*
X414443Y446675D01*
X414090Y445824D01*
X413970Y444910D01*
X414090Y443996D01*
X414443Y443145D01*
X415004Y442414D01*
X415735Y441853D01*
X416586Y441500D01*
X417500Y441380D01*
X418414Y441500D01*
X419265Y441853D01*
X419996Y442414D01*
X420557Y443145D01*
X420910Y443996D01*
X421030Y444910D01*
X420910Y445824D01*
X420557Y446675D01*
X419996Y447406D01*
X419265Y447967D01*
X419039Y448061D01*
Y454410D01*
X418884Y455190D01*
X418442Y455852D01*
X414442Y459852D01*
X413780Y460294D01*
X413000Y460449D01*
X390345D01*
X388942Y461852D01*
X388280Y462294D01*
X387500Y462449D01*
X374130D01*
X373716Y463813D01*
X372894Y465351D01*
X371788Y466698D01*
X370441Y467804D01*
X368903Y468626D01*
X367235Y469132D01*
X367030Y469152D01*
Y474668D01*
X367235Y474688D01*
X368903Y475194D01*
X370441Y476016D01*
X371788Y477122D01*
X372894Y478469D01*
X373716Y480007D01*
X374222Y481675D01*
X374393Y483410D01*
X374222Y485145D01*
X373716Y486813D01*
X372894Y488351D01*
X371788Y489698D01*
X370441Y490804D01*
X368903Y491626D01*
X367967Y491910D01*
X368041Y492410D01*
X517300Y492410D01*
D02*
G37*
G36*
X340000Y322500D02*
X105000D01*
Y494500D01*
X340000D01*
Y322500D01*
D02*
G37*
%LPC*%
G36*
X462500Y481930D02*
X418500D01*
X418110Y481852D01*
X417779Y481631D01*
X417558Y481300D01*
X417481Y480910D01*
Y458910D01*
X417558Y458520D01*
X417779Y458189D01*
X418110Y457968D01*
X418500Y457890D01*
X425481D01*
Y455910D01*
X425558Y455520D01*
X425779Y455189D01*
X426110Y454968D01*
X426500Y454890D01*
X442481D01*
Y439910D01*
X442558Y439520D01*
X442779Y439189D01*
X443110Y438968D01*
X443500Y438890D01*
X454576D01*
X454610Y438868D01*
X455000Y438790D01*
X461200D01*
X461590Y438868D01*
X461624Y438890D01*
X462500D01*
X462890Y438968D01*
X463221Y439189D01*
X463442Y439520D01*
X463520Y439910D01*
Y480910D01*
X463442Y481300D01*
X463221Y481631D01*
X462890Y481852D01*
X462500Y481930D01*
D02*
G37*
G36*
X447500Y420440D02*
X446586Y420320D01*
X445735Y419967D01*
X445004Y419406D01*
X444443Y418675D01*
X444090Y417824D01*
X443970Y416910D01*
X444090Y415996D01*
X444443Y415145D01*
X445004Y414414D01*
X445735Y413853D01*
X446586Y413500D01*
X447500Y413380D01*
X448414Y413500D01*
X449265Y413853D01*
X449996Y414414D01*
X450557Y415145D01*
X450910Y415996D01*
X451030Y416910D01*
X450910Y417824D01*
X450557Y418675D01*
X449996Y419406D01*
X449265Y419967D01*
X448414Y420320D01*
X447500Y420440D01*
D02*
G37*
G36*
X438000Y419940D02*
X437086Y419820D01*
X436235Y419467D01*
X435504Y418906D01*
X434943Y418175D01*
X434590Y417324D01*
X434470Y416410D01*
X434590Y415496D01*
X434943Y414645D01*
X435504Y413914D01*
X436235Y413353D01*
X437086Y413000D01*
X438000Y412880D01*
X438914Y413000D01*
X439765Y413353D01*
X440496Y413914D01*
X441057Y414645D01*
X441410Y415496D01*
X441530Y416410D01*
X441410Y417324D01*
X441057Y418175D01*
X440496Y418906D01*
X439765Y419467D01*
X438914Y419820D01*
X438000Y419940D01*
D02*
G37*
G36*
X444700Y397040D02*
X443786Y396920D01*
X442935Y396567D01*
X442204Y396006D01*
X441643Y395275D01*
X441290Y394424D01*
X441170Y393510D01*
X441290Y392596D01*
X441643Y391745D01*
X442204Y391014D01*
X442935Y390453D01*
X443786Y390100D01*
X444700Y389980D01*
X445614Y390100D01*
X446465Y390453D01*
X447196Y391014D01*
X447757Y391745D01*
X448110Y392596D01*
X448230Y393510D01*
X448110Y394424D01*
X447757Y395275D01*
X447196Y396006D01*
X446465Y396567D01*
X445614Y396920D01*
X444700Y397040D01*
D02*
G37*
G36*
X433100Y395640D02*
X432186Y395520D01*
X431335Y395167D01*
X430604Y394606D01*
X430043Y393875D01*
X429690Y393024D01*
X429570Y392110D01*
X429690Y391196D01*
X430043Y390345D01*
X430604Y389614D01*
X431335Y389053D01*
X432186Y388700D01*
X433100Y388580D01*
X434014Y388700D01*
X434865Y389053D01*
X435596Y389614D01*
X436157Y390345D01*
X436510Y391196D01*
X436630Y392110D01*
X436510Y393024D01*
X436157Y393875D01*
X435596Y394606D01*
X434865Y395167D01*
X434014Y395520D01*
X433100Y395640D01*
D02*
G37*
G36*
X451500Y385953D02*
X450195Y385781D01*
X448979Y385278D01*
X447934Y384476D01*
X447133Y383432D01*
X446629Y382215D01*
X446457Y380910D01*
Y372750D01*
X446279Y372631D01*
X446058Y372300D01*
X445981Y371910D01*
Y361777D01*
X445480Y361678D01*
X445357Y361975D01*
X444796Y362706D01*
X444065Y363267D01*
X443214Y363620D01*
X442300Y363740D01*
X441386Y363620D01*
X440535Y363267D01*
X439804Y362706D01*
X439243Y361975D01*
X438890Y361124D01*
X438770Y360210D01*
X438890Y359296D01*
X439243Y358445D01*
X439804Y357714D01*
X440535Y357153D01*
X441386Y356800D01*
X442300Y356680D01*
X443214Y356800D01*
X444065Y357153D01*
X444796Y357714D01*
X445357Y358445D01*
X445480Y358742D01*
X445981Y358643D01*
Y347910D01*
X446058Y347520D01*
X446279Y347189D01*
X446610Y346968D01*
X447000Y346890D01*
X465000D01*
X465390Y346968D01*
X465721Y347189D01*
X465942Y347520D01*
X466020Y347910D01*
Y371910D01*
X465942Y372300D01*
X465721Y372631D01*
X465390Y372852D01*
X465000Y372930D01*
X456543D01*
Y380910D01*
X456371Y382215D01*
X455868Y383432D01*
X455066Y384476D01*
X454022Y385278D01*
X452805Y385781D01*
X451500Y385953D01*
D02*
G37*
G36*
X366000Y373303D02*
X364265Y373132D01*
X362597Y372626D01*
X361059Y371804D01*
X359712Y370698D01*
X358606Y369351D01*
X357784Y367813D01*
X357278Y366145D01*
X357107Y364410D01*
X357278Y362675D01*
X357784Y361007D01*
X358606Y359469D01*
X359712Y358122D01*
X361059Y357016D01*
X362597Y356194D01*
X364265Y355688D01*
X366000Y355517D01*
X367735Y355688D01*
X369403Y356194D01*
X370941Y357016D01*
X372288Y358122D01*
X373394Y359469D01*
X374216Y361007D01*
X374722Y362675D01*
X374893Y364410D01*
X374722Y366145D01*
X374216Y367813D01*
X373394Y369351D01*
X372288Y370698D01*
X370941Y371804D01*
X369403Y372626D01*
X367735Y373132D01*
X366000Y373303D01*
D02*
G37*
G36*
X365500Y353303D02*
X363765Y353132D01*
X362097Y352626D01*
X360560Y351804D01*
X359212Y350698D01*
X358106Y349351D01*
X357284Y347813D01*
X356778Y346145D01*
X356607Y344410D01*
X356778Y342675D01*
X357284Y341007D01*
X358106Y339469D01*
X359212Y338122D01*
X360560Y337016D01*
X362097Y336194D01*
X363765Y335688D01*
X365500Y335517D01*
X367235Y335688D01*
X368903Y336194D01*
X370441Y337016D01*
X371788Y338122D01*
X372894Y339469D01*
X373716Y341007D01*
X374222Y342675D01*
X374393Y344410D01*
X374222Y346145D01*
X373716Y347813D01*
X372894Y349351D01*
X371788Y350698D01*
X370441Y351804D01*
X368903Y352626D01*
X367235Y353132D01*
X365500Y353303D01*
D02*
G37*
%LPD*%
G36*
X462500Y439910D02*
X461200D01*
Y439810D01*
X455000D01*
Y439910D01*
X443500D01*
Y455910D01*
X426500D01*
Y458910D01*
X418500D01*
Y480910D01*
X462500D01*
Y439910D01*
D02*
G37*
G36*
X465000Y347910D02*
X447000D01*
Y371910D01*
X465000D01*
Y347910D01*
D02*
G37*
%LPC*%
G36*
X207500Y429294D02*
X206622Y429119D01*
X205878Y428622D01*
X205381Y427878D01*
X205206Y427000D01*
X205381Y426122D01*
X205461Y426002D01*
Y396300D01*
X205616Y395520D01*
X206058Y394858D01*
X207752Y393164D01*
X207781Y393022D01*
X208278Y392278D01*
X209022Y391780D01*
X209900Y391606D01*
X210778Y391780D01*
X211522Y392278D01*
X212019Y393022D01*
X212194Y393900D01*
X212019Y394778D01*
X211522Y395522D01*
X210778Y396020D01*
X210636Y396048D01*
X209539Y397145D01*
Y426002D01*
X209619Y426122D01*
X209794Y427000D01*
X209619Y427878D01*
X209122Y428622D01*
X208378Y429119D01*
X207500Y429294D01*
D02*
G37*
G36*
X329000Y438388D02*
X327461Y438236D01*
X325981Y437787D01*
X324618Y437059D01*
X323422Y436078D01*
X322441Y434882D01*
X321712Y433519D01*
X321264Y432039D01*
X321112Y430500D01*
X321264Y428961D01*
X321712Y427481D01*
X322441Y426118D01*
X323422Y424922D01*
X324618Y423941D01*
X325981Y423212D01*
X326961Y422915D01*
Y405345D01*
X296155Y374539D01*
X257998D01*
X257878Y374620D01*
X257000Y374794D01*
X256122Y374620D01*
X255378Y374122D01*
X254880Y373378D01*
X254706Y372500D01*
X254880Y371622D01*
X255378Y370878D01*
X256122Y370380D01*
X257000Y370206D01*
X257878Y370380D01*
X257998Y370461D01*
X297000D01*
X297780Y370616D01*
X298442Y371058D01*
X330442Y403058D01*
X330884Y403720D01*
X331039Y404500D01*
Y422915D01*
X332019Y423212D01*
X333382Y423941D01*
X334578Y424922D01*
X335559Y426118D01*
X336287Y427481D01*
X336736Y428961D01*
X336888Y430500D01*
X336736Y432039D01*
X336287Y433519D01*
X335559Y434882D01*
X334578Y436078D01*
X333382Y437059D01*
X332019Y437787D01*
X330539Y438236D01*
X329000Y438388D01*
D02*
G37*
G36*
X121000Y484388D02*
X119461Y484236D01*
X117981Y483787D01*
X116618Y483059D01*
X115422Y482078D01*
X114441Y480882D01*
X113713Y479519D01*
X113264Y478039D01*
X113112Y476500D01*
X113264Y474961D01*
X113713Y473481D01*
X114441Y472118D01*
X115422Y470922D01*
X116618Y469941D01*
X117981Y469212D01*
X119461Y468764D01*
X121000Y468612D01*
X122539Y468764D01*
X124019Y469212D01*
X125203Y469846D01*
X149767Y445282D01*
Y400900D01*
X149899Y400237D01*
X150274Y399674D01*
X168867Y381082D01*
Y380270D01*
X168835Y380257D01*
X168104Y379696D01*
X167543Y378965D01*
X167190Y378114D01*
X167070Y377200D01*
X167190Y376286D01*
X167543Y375435D01*
X168104Y374704D01*
X168835Y374143D01*
X169686Y373790D01*
X170600Y373670D01*
X171514Y373790D01*
X172365Y374143D01*
X173096Y374704D01*
X173657Y375435D01*
X174010Y376286D01*
X174130Y377200D01*
X174010Y378114D01*
X173657Y378965D01*
X173096Y379696D01*
X172365Y380257D01*
X172333Y380270D01*
Y381800D01*
X172201Y382463D01*
X171826Y383026D01*
X153233Y401618D01*
Y446000D01*
X153101Y446663D01*
X152726Y447226D01*
X127654Y472297D01*
X128287Y473481D01*
X128736Y474961D01*
X128888Y476500D01*
X128736Y478039D01*
X128287Y479519D01*
X127559Y480882D01*
X126578Y482078D01*
X125382Y483059D01*
X124019Y483787D01*
X122539Y484236D01*
X121000Y484388D01*
D02*
G37*
G36*
X217500Y440794D02*
X216622Y440619D01*
X215878Y440122D01*
X215381Y439378D01*
X215206Y438500D01*
X215381Y437622D01*
X215461Y437502D01*
Y420498D01*
X215381Y420378D01*
X215206Y419500D01*
X215381Y418622D01*
X215461Y418502D01*
Y408000D01*
X215616Y407220D01*
X216058Y406558D01*
X235343Y387273D01*
X235179Y386730D01*
X234622Y386619D01*
X234502Y386539D01*
X227000D01*
X226220Y386384D01*
X225558Y385942D01*
X210264Y370648D01*
X210122Y370620D01*
X209378Y370122D01*
X208880Y369378D01*
X208706Y368500D01*
X208880Y367622D01*
X209378Y366878D01*
X210122Y366381D01*
X211000Y366206D01*
X211878Y366381D01*
X212622Y366878D01*
X213120Y367622D01*
X213148Y367764D01*
X227845Y382461D01*
X234502D01*
X234622Y382381D01*
X235500Y382206D01*
X236378Y382381D01*
X237122Y382878D01*
X237461Y383385D01*
X237961Y383233D01*
Y358498D01*
X237880Y358378D01*
X237706Y357500D01*
X237880Y356622D01*
X238378Y355878D01*
X239122Y355381D01*
X240000Y355206D01*
X240878Y355381D01*
X241622Y355878D01*
X242120Y356622D01*
X242294Y357500D01*
X242120Y358378D01*
X242039Y358498D01*
Y385500D01*
X242039Y385500D01*
X241884Y386280D01*
X241442Y386942D01*
X241442Y386942D01*
X219539Y408845D01*
Y418502D01*
X219619Y418622D01*
X219794Y419500D01*
X219619Y420378D01*
X219539Y420498D01*
Y437502D01*
X219619Y437622D01*
X219794Y438500D01*
X219619Y439378D01*
X219122Y440122D01*
X218378Y440619D01*
X217500Y440794D01*
D02*
G37*
%LPD*%
D23*
X151500Y400900D02*
X170600Y381800D01*
Y377200D02*
Y381800D01*
Y377200D02*
X170900D01*
X151500Y400900D02*
Y446000D01*
X121000Y476500D02*
X151500Y446000D01*
D24*
X365500Y483410D02*
Y460410D01*
X422500Y411810D02*
X422200D01*
D25*
X207500Y396300D02*
Y427000D01*
Y396300D02*
X209900Y393900D01*
X217500Y419500D02*
Y438500D01*
Y408000D02*
Y419500D01*
X297000Y372500D02*
X329000Y404500D01*
Y430500D01*
X257000Y372500D02*
X297000D01*
X227000Y384500D02*
X235500D01*
X211000Y368500D02*
X227000Y384500D01*
X240000Y357500D02*
Y385500D01*
X217500Y408000D02*
X240000Y385500D01*
X367000Y485910D02*
X365500Y484410D01*
X389500Y458410D02*
X387500Y460410D01*
X413000Y458410D02*
X389500D01*
X417000Y454410D02*
X413000Y458410D01*
X417000Y454410D02*
Y445410D01*
X417500Y444910D02*
X417000Y445410D01*
X387500Y460410D02*
X365500D01*
X432000Y462910D02*
Y462410D01*
X432500Y462910D02*
X432000D01*
D33*
X217500Y419500D02*
D03*
X207500Y427000D02*
D03*
X243000Y344500D02*
D03*
X251000D02*
D03*
X157000Y416500D02*
D03*
X145000D02*
D03*
X137000D02*
D03*
X129000D02*
D03*
X121000D02*
D03*
X113000D02*
D03*
X311500Y361500D02*
D03*
Y343000D02*
D03*
Y332500D02*
D03*
Y368500D02*
D03*
Y353000D02*
D03*
X303500Y361500D02*
D03*
X303000Y352500D02*
D03*
Y342500D02*
D03*
Y332000D02*
D03*
X293500Y361500D02*
D03*
Y351500D02*
D03*
X295000Y342000D02*
D03*
X294500Y331000D02*
D03*
X284000Y360500D02*
D03*
Y351000D02*
D03*
X284500Y340000D02*
D03*
X283500Y330000D02*
D03*
X273500D02*
D03*
X173000Y416500D02*
D03*
X165000D02*
D03*
X257000Y372500D02*
D03*
X235500Y384500D02*
D03*
X211000Y368500D02*
D03*
X240000Y357500D02*
D03*
X217500Y438500D02*
D03*
X209900Y393900D02*
D03*
X225000Y362500D02*
D03*
Y358500D02*
D03*
Y354500D02*
D03*
D34*
X121000Y404500D02*
D03*
Y476500D02*
D03*
X329000Y430500D02*
D03*
X327000Y355500D02*
D03*
D35*
X170600Y377200D02*
D03*
X442300Y360210D02*
D03*
X447500Y416910D02*
D03*
X433100Y392110D02*
D03*
X488400Y357710D02*
D03*
X417500Y444910D02*
D03*
X488500Y365610D02*
D03*
X488400Y350210D02*
D03*
X451300Y355710D02*
D03*
X488700Y455510D02*
D03*
Y447410D02*
D03*
X447700Y447510D02*
D03*
X443600Y464710D02*
D03*
X422000Y462410D02*
D03*
X447700Y454510D02*
D03*
X432200Y476510D02*
D03*
X444700Y393510D02*
D03*
X438000Y416410D02*
D03*
D36*
X103000Y320500D02*
Y496500D01*
X427000D01*
Y320500D02*
Y496500D01*
X103000Y320500D02*
X427000D01*
X612800Y496210D02*
Y325000D01*
X309090D01*
Y496210D02*
Y325000D01*
X612800Y496210D02*
X309090D01*
D37*
X365500Y344410D02*
D03*
X366000Y364410D02*
D03*
X365500Y483410D02*
D03*
X506000Y339410D02*
D03*
X365500Y460410D02*
D03*
Y406410D02*
D03*
X506000Y478410D02*
D03*
X365500Y427410D02*
D03*
D38*
X498800Y404210D02*
D03*
X490800D02*
D03*
X482800Y403710D02*
D03*
X474300D02*
D03*
X474800Y408710D02*
D03*
X482800Y409210D02*
D03*
X490300D02*
D03*
X498300D02*
D03*
X482500Y398410D02*
D03*
X490500D02*
D03*
X498500Y414410D02*
D03*
X474500D02*
D03*
X482500D02*
D03*
X498500Y398410D02*
D03*
X490500Y414410D02*
D03*
X474500Y398410D02*
D03*
D39*
X394000Y382010D02*
D03*
X396500Y436310D02*
D03*
D40*
X451500Y370910D02*
D03*
Y380910D02*
D03*
D41*
Y370910D01*
M02*
