G04*
G04 #@! TF.GenerationSoftware,Altium Limited,Altium Designer,19.1.1 (5)*
G04*
G04 Layer_Physical_Order=1*
G04 Layer_Color=255*
%FSLAX25Y25*%
%MOIN*%
G70*
G01*
G75*
%ADD10R,0.02200X0.02400*%
%ADD11R,0.07100X0.04400*%
%ADD12R,0.05700X0.04400*%
%ADD13R,0.02400X0.02200*%
%ADD14R,0.04400X0.05700*%
%ADD15R,0.02200X0.13200*%
%ADD16R,0.09100X0.08900*%
%ADD17R,0.08600X0.06400*%
%ADD18R,0.02480X0.01968*%
%ADD19R,0.05600X0.22400*%
%ADD20R,0.04300X0.14000*%
%ADD21R,0.01400X0.01300*%
%ADD22R,0.05400X0.01300*%
%ADD23C,0.01400*%
%ADD24C,0.01000*%
%ADD25C,0.02000*%
%ADD26R,0.33600X0.21000*%
%ADD27R,0.09500X0.03500*%
%ADD28R,0.05118X0.10630*%
%ADD29C,0.09000*%
%ADD30C,0.06000*%
%ADD31C,0.04000*%
%ADD32C,0.02500*%
%ADD33C,0.02500*%
%ADD34C,0.13700*%
%ADD35C,0.05000*%
%ADD36C,0.00100*%
%ADD37C,0.15700*%
%ADD38C,0.02800*%
%ADD39C,0.06000*%
%ADD40C,0.08000*%
G36*
X235900Y451500D02*
X209900D01*
Y441500D01*
X105000D01*
Y494200D01*
X235900D01*
Y451500D01*
D02*
G37*
G36*
X226000Y440500D02*
X214000D01*
Y447500D01*
X226000D01*
Y440500D01*
D02*
G37*
G36*
X225500Y422646D02*
X221810D01*
Y422500D01*
X199000D01*
Y436500D01*
X216443D01*
X216622Y436381D01*
X217500Y436206D01*
X218378Y436381D01*
X218557Y436500D01*
X225500D01*
Y422646D01*
D02*
G37*
G36*
X340500Y492500D02*
X349300D01*
Y493910D01*
X395500D01*
Y481910D01*
X400500D01*
Y493910D01*
X462500D01*
Y441610D01*
X462700D01*
Y426610D01*
X462500D01*
Y419910D01*
X462200D01*
Y419410D01*
X452100D01*
Y439910D01*
X437500D01*
Y457910D01*
X400500D01*
Y472910D01*
X395500D01*
Y441910D01*
X349300D01*
Y443500D01*
X340500D01*
Y439600D01*
Y438400D01*
Y418500D01*
X303900D01*
Y487200D01*
Y494200D01*
X340500D01*
Y492500D01*
D02*
G37*
G36*
X301700Y417600D02*
X227900D01*
Y446500D01*
X237000D01*
Y494000D01*
X301700D01*
Y417600D01*
D02*
G37*
G36*
X518300Y327910D02*
X467500D01*
Y384410D01*
X465500Y386410D01*
Y404410D01*
X430000D01*
X420000Y394410D01*
Y387410D01*
X418500D01*
Y379410D01*
X350800Y379410D01*
Y384500D01*
X340500D01*
Y322500D01*
X105000D01*
Y439500D01*
X194000D01*
Y415500D01*
X231000D01*
Y394000D01*
X232200D01*
Y391750D01*
X231550D01*
Y388450D01*
X232200D01*
Y386800D01*
X231000D01*
Y373500D01*
X229000D01*
Y349500D01*
X226000D01*
Y348000D01*
X226200D01*
Y340800D01*
X226000D01*
Y340500D01*
X190000D01*
Y349500D01*
X190750D01*
Y349250D01*
X198450D01*
Y349500D01*
X212000D01*
Y354500D01*
X223000D01*
Y396500D01*
X195000D01*
X194900Y382500D01*
X181100D01*
Y383050D01*
X176700D01*
Y382500D01*
X164000D01*
Y338500D01*
X238000D01*
Y354500D01*
X265000D01*
Y396500D01*
X233000D01*
Y415500D01*
X340500D01*
Y408500D01*
X350800D01*
Y440410D01*
X428500Y440410D01*
Y434614D01*
X428387Y434445D01*
X428271Y433860D01*
X428387Y433275D01*
X428500Y433106D01*
Y416910D01*
X437000Y408410D01*
X465500D01*
Y422210D01*
Y493410D01*
X518300D01*
Y327910D01*
D02*
G37*
G36*
X241200Y386800D02*
X233700D01*
Y394000D01*
X241200D01*
Y386800D01*
D02*
G37*
G36*
X219000Y383000D02*
X211800D01*
Y390500D01*
X219000D01*
Y383000D01*
D02*
G37*
G36*
Y374000D02*
X211800D01*
Y381500D01*
X219000D01*
Y374000D01*
D02*
G37*
G36*
X465500Y327410D02*
X351800D01*
Y377410D01*
X413000D01*
Y363910D01*
X447500D01*
Y374910D01*
X457000D01*
Y381410D01*
X465500D01*
Y327410D01*
D02*
G37*
G36*
X205200Y362800D02*
X197700D01*
Y370000D01*
X205200D01*
Y362800D01*
D02*
G37*
G36*
X196200D02*
X188700D01*
Y370000D01*
X196200D01*
Y362800D01*
D02*
G37*
G36*
X198500Y351200D02*
X191300D01*
Y358700D01*
X198500D01*
Y351200D01*
D02*
G37*
G36*
X235200Y340800D02*
X227700D01*
Y348000D01*
X235200D01*
Y340800D01*
D02*
G37*
D10*
X228850Y344300D02*
D03*
X225550D02*
D03*
X231150Y378300D02*
D03*
X234450D02*
D03*
X254650Y390300D02*
D03*
X251350D02*
D03*
X440800Y372210D02*
D03*
X437500D02*
D03*
D11*
X246800Y350400D02*
D03*
Y362200D02*
D03*
X215500Y388100D02*
D03*
Y376300D02*
D03*
D12*
X204200Y379450D02*
D03*
Y386550D02*
D03*
X191300Y385950D02*
D03*
Y378850D02*
D03*
X194600Y352450D02*
D03*
Y345350D02*
D03*
X443200Y432560D02*
D03*
Y439660D02*
D03*
D13*
X178900Y384250D02*
D03*
Y380950D02*
D03*
X177200Y359650D02*
D03*
Y356350D02*
D03*
D14*
X192950Y365700D02*
D03*
X200050D02*
D03*
X432150Y445010D02*
D03*
X425050D02*
D03*
X424850Y434010D02*
D03*
X431950D02*
D03*
X435250Y380610D02*
D03*
X442350D02*
D03*
X418650D02*
D03*
X425750D02*
D03*
X467400Y446210D02*
D03*
X460300D02*
D03*
X425250Y390510D02*
D03*
X418150D02*
D03*
D15*
X198550Y429500D02*
D03*
X191050D02*
D03*
D16*
X310500Y409000D02*
D03*
Y426100D02*
D03*
D17*
X244700Y457200D02*
D03*
X230100D02*
D03*
D18*
X229700Y424500D02*
D03*
X235350Y428339D02*
D03*
X235350Y425779D02*
D03*
Y423220D02*
D03*
X235350Y420661D02*
D03*
X224050D02*
D03*
X224050Y423220D02*
D03*
Y425779D02*
D03*
X224050Y428339D02*
D03*
D19*
X295050Y470000D02*
D03*
X310950D02*
D03*
D20*
X162200Y452100D02*
D03*
Y428700D02*
D03*
X126600Y452100D02*
D03*
Y428700D02*
D03*
D21*
X233250Y390100D02*
D03*
X230950D02*
D03*
D22*
X216550Y362537D02*
D03*
Y360568D02*
D03*
Y358600D02*
D03*
Y356631D02*
D03*
Y354663D02*
D03*
X233850D02*
D03*
Y356631D02*
D03*
Y358600D02*
D03*
Y360568D02*
D03*
Y362537D02*
D03*
D23*
X222889Y419500D02*
X224050Y420661D01*
X218000Y419500D02*
X222889D01*
X232900Y362900D02*
X233200Y363200D01*
X215500Y378300D02*
X218400D01*
X204500Y427000D02*
X207500D01*
X202000Y424500D02*
X204500Y427000D01*
X233200Y363200D02*
Y374700D01*
X237000Y390500D02*
X251350D01*
X189900Y366300D02*
X195500D01*
X178900Y377300D02*
Y380950D01*
X204200Y386550D02*
Y388200D01*
X170500Y369600D02*
Y377200D01*
Y377500D01*
Y369600D02*
X177400Y362700D01*
X204000Y428500D02*
Y429500D01*
X217500Y438500D02*
Y443900D01*
X178900Y377300D02*
X189900Y366300D01*
X218100Y378000D02*
X218400Y378300D01*
X219000Y444000D02*
X220500D01*
X204200Y388200D02*
X209900Y393900D01*
X170500Y377200D02*
X170600D01*
X191500Y378300D02*
X201000Y368800D01*
Y366500D02*
Y368800D01*
D24*
X211000Y368500D02*
Y372650D01*
X206550Y377100D02*
X211000Y372650D01*
X206550Y377100D02*
Y377750D01*
X204850Y379450D02*
X206550Y377750D01*
X204200Y379450D02*
X204850D01*
X215500Y362300D02*
Y376300D01*
X233200Y374700D02*
X234100Y375600D01*
Y377950D01*
X234450Y378300D01*
X234650Y378500D01*
X251000D02*
X254200Y381700D01*
X253800Y375700D02*
X257000Y372500D01*
X247538Y378500D02*
X251000D01*
X234650D02*
X247538D01*
X250338Y375700D01*
X253800D01*
X254200Y381700D02*
Y389850D01*
X254650Y390300D01*
X237000Y390500D02*
Y391500D01*
X245550Y360950D02*
X249800D01*
X244000D02*
X245550D01*
X246800Y362200D01*
X245000Y360400D02*
X245550Y360950D01*
X233200Y360400D02*
X245000D01*
X197700Y356500D02*
X216700D01*
X177400Y356800D02*
X179900Y354300D01*
X195500D01*
X211000Y361300D02*
Y368500D01*
Y361300D02*
X211800Y360500D01*
X216500D01*
X215500Y376300D02*
Y378300D01*
X177400Y359700D02*
Y362700D01*
X295350Y438500D02*
X299300D01*
X306200D02*
X339800D01*
X233200Y346700D02*
Y354500D01*
X231000Y344500D02*
X233200Y346700D01*
X235500Y384500D02*
Y390000D01*
X234000Y358500D02*
X238500D01*
X239500Y357500D01*
X240000D01*
X237000Y389200D02*
Y390500D01*
X211300Y358500D02*
X216700D01*
X203300Y366500D02*
X211300Y358500D01*
X228500Y356500D02*
X233200D01*
X195500Y354300D02*
X197700Y356500D01*
X215500Y386300D02*
X224800D01*
X229000Y390500D01*
X270700Y438500D02*
X295350D01*
X244000Y351950D02*
X249800D01*
X188500Y386750D02*
X194300D01*
X188500Y377750D02*
X194300D01*
X228450Y375500D02*
Y381300D01*
X143000Y442200D02*
Y460800D01*
Y420200D02*
Y438800D01*
X427300Y380360D02*
X423600D01*
X435500D02*
X433600D01*
X444000D02*
X442200D01*
X456500Y391410D02*
Y390410D01*
X451500Y385410D02*
Y384410D01*
X457100Y401410D02*
X456600Y401910D01*
X420000Y390360D02*
X416300D01*
X426700D02*
X423000D01*
X443000Y361410D02*
X442200Y362210D01*
X418800Y380410D02*
X417800Y381410D01*
X442950Y441110D02*
Y437410D01*
Y434410D02*
Y430710D01*
X426800Y433860D02*
X423100D01*
X433500D02*
X429800D01*
X433800Y444860D02*
X430100D01*
X427200D02*
X423500D01*
X420700Y380360D02*
X417000D01*
D25*
X236000Y390500D02*
X237000D01*
X435500Y380410D02*
X425500D01*
X435500Y384410D02*
Y380410D01*
X447500Y396410D02*
X435500Y384410D01*
Y380360D02*
Y374210D01*
X437500Y372210D02*
X435500Y374210D01*
Y380410D02*
Y380360D01*
X442200D02*
Y362210D01*
Y380410D02*
Y380360D01*
X457100Y416410D02*
X448000D01*
X458600Y401910D02*
X442700D01*
X433100Y392110D02*
X427200D01*
X425500Y390410D01*
X418100D02*
X412500D01*
X447500Y429410D02*
Y416910D01*
Y429410D02*
X443300Y433710D01*
X444000Y411410D02*
X443000D01*
X457300D02*
X457100D01*
Y396410D02*
X447500D01*
X431700Y433910D02*
Y422710D01*
X438000Y416410D02*
X431700Y422710D01*
Y444610D02*
Y433910D01*
X425300Y444910D02*
X417500D01*
X442700Y401910D02*
X433000Y392210D01*
X457100Y411410D02*
X443000D01*
D26*
X487375Y406310D02*
D03*
D27*
X457375Y391310D02*
D03*
Y396310D02*
D03*
Y401310D02*
D03*
Y406310D02*
D03*
Y411310D02*
D03*
Y416310D02*
D03*
Y421310D02*
D03*
D28*
X471717Y356710D02*
D03*
X460300D02*
D03*
D29*
X457300Y434710D02*
Y424310D01*
Y460410D02*
Y434710D01*
D30*
X456500Y390410D02*
X451500Y385410D01*
D31*
X469000Y406410D02*
X422500D01*
D32*
X443000Y411410D02*
X438000Y416410D01*
D33*
X217500Y419500D02*
D03*
X207500Y427000D02*
D03*
X243000Y344500D02*
D03*
X251000D02*
D03*
X157000Y416500D02*
D03*
X145000D02*
D03*
X137000D02*
D03*
X129000D02*
D03*
X121000D02*
D03*
X113000D02*
D03*
X311500Y361500D02*
D03*
Y343000D02*
D03*
Y332500D02*
D03*
Y368500D02*
D03*
Y353000D02*
D03*
X303500Y361500D02*
D03*
X303000Y352500D02*
D03*
Y342500D02*
D03*
Y332000D02*
D03*
X293500Y361500D02*
D03*
Y351500D02*
D03*
X295000Y342000D02*
D03*
X294500Y331000D02*
D03*
X284000Y360500D02*
D03*
Y351000D02*
D03*
X284500Y340000D02*
D03*
X283500Y330000D02*
D03*
X273500D02*
D03*
X173000Y416500D02*
D03*
X165000D02*
D03*
X257000Y372500D02*
D03*
X235500Y384500D02*
D03*
X211000Y368500D02*
D03*
X240000Y357500D02*
D03*
X217500Y438500D02*
D03*
X209900Y393900D02*
D03*
X225000Y362500D02*
D03*
Y358500D02*
D03*
Y354500D02*
D03*
D34*
X121000Y404500D02*
D03*
Y476500D02*
D03*
X329000Y430500D02*
D03*
X327000Y355500D02*
D03*
D35*
X170600Y377200D02*
D03*
X442300Y360210D02*
D03*
X447500Y416910D02*
D03*
X433100Y392110D02*
D03*
X488400Y357710D02*
D03*
X417500Y444910D02*
D03*
X488500Y365610D02*
D03*
X488400Y350210D02*
D03*
X451300Y355710D02*
D03*
X488700Y455510D02*
D03*
Y447410D02*
D03*
X447700Y447510D02*
D03*
X443600Y464710D02*
D03*
X422000Y462410D02*
D03*
X447700Y454510D02*
D03*
X432200Y476510D02*
D03*
X444700Y393510D02*
D03*
X438000Y416410D02*
D03*
D36*
X103000Y320500D02*
Y496500D01*
X427000D01*
Y320500D02*
Y496500D01*
X103000Y320500D02*
X427000D01*
X612800Y496210D02*
Y325000D01*
X309090D01*
Y496210D02*
Y325000D01*
X612800Y496210D02*
X309090D01*
D37*
X365500Y344410D02*
D03*
X366000Y364410D02*
D03*
X365500Y483410D02*
D03*
X506000Y339410D02*
D03*
X365500Y460410D02*
D03*
Y406410D02*
D03*
X506000Y478410D02*
D03*
X365500Y427410D02*
D03*
D38*
X498800Y404210D02*
D03*
X490800D02*
D03*
X482800Y403710D02*
D03*
X474300D02*
D03*
X474800Y408710D02*
D03*
X482800Y409210D02*
D03*
X490300D02*
D03*
X498300D02*
D03*
X482500Y398410D02*
D03*
X490500D02*
D03*
X498500Y414410D02*
D03*
X474500D02*
D03*
X482500D02*
D03*
X498500Y398410D02*
D03*
X490500Y414410D02*
D03*
X474500Y398410D02*
D03*
D39*
X394000Y382010D02*
D03*
X396500Y436310D02*
D03*
D40*
X451500Y370910D02*
D03*
Y380910D02*
D03*
M02*
