G04*
G04 #@! TF.GenerationSoftware,Altium Limited,Altium Designer,19.1.1 (5)*
G04*
G04 Layer_Color=65535*
%FSLAX25Y25*%
%MOIN*%
G70*
G01*
G75*
%ADD24C,0.01000*%
%ADD42C,0.00600*%
%ADD43C,0.00787*%
%ADD44C,0.00300*%
%ADD45C,0.00700*%
D24*
X114499Y338498D02*
X113499Y339498D01*
X111500D01*
X110500Y338498D01*
Y334500D01*
X111500Y333500D01*
X113499D01*
X114499Y334500D01*
Y336499D01*
X112499D01*
X116498Y333500D02*
Y339498D01*
X120497Y333500D01*
Y339498D01*
X122496D02*
Y333500D01*
X125495D01*
X126495Y334500D01*
Y338498D01*
X125495Y339498D01*
X122496D01*
X149500Y491998D02*
Y487999D01*
X151499Y486000D01*
X153499Y487999D01*
Y491998D01*
X156498Y486000D02*
X158497D01*
X159497Y487000D01*
Y488999D01*
X158497Y489999D01*
X156498D01*
X155498Y488999D01*
Y487000D01*
X156498Y486000D01*
X161496Y489999D02*
Y487000D01*
X162496Y486000D01*
X165495D01*
Y489999D01*
X168494Y490998D02*
Y489999D01*
X167494D01*
X169493D01*
X168494D01*
Y487000D01*
X169493Y486000D01*
X323000Y455998D02*
Y451999D01*
X324999Y450000D01*
X326999Y451999D01*
Y455998D01*
X328998Y450000D02*
X330997D01*
X329998D01*
Y453999D01*
X328998D01*
X333996Y450000D02*
Y453999D01*
X336996D01*
X337995Y452999D01*
Y450000D01*
X386800Y468712D02*
Y472711D01*
X384801Y474710D01*
X382801Y472711D01*
Y468712D01*
X380802Y474710D02*
X378803D01*
X379802D01*
Y470711D01*
X380802D01*
X375804Y474710D02*
Y470711D01*
X372805D01*
X371805Y471711D01*
Y474710D01*
D42*
X224000Y364700D02*
X224352Y363851D01*
X225200Y363500D01*
X226048Y363851D01*
X226400Y364700D01*
X250350Y353910D02*
Y358690D01*
X243250Y353910D02*
Y358690D01*
X211950Y379810D02*
Y384590D01*
X219050Y379810D02*
Y384590D01*
X193460Y436100D02*
X196140D01*
X193460Y422900D02*
X196140D01*
X316360Y429950D02*
X317400D01*
Y405150D02*
Y429950D01*
X303600Y405150D02*
X304640D01*
X303600D02*
Y429950D01*
X309000Y436350D02*
X312000D01*
X310500Y434850D02*
Y437850D01*
X303600Y429950D02*
X304640D01*
X316360Y405150D02*
X317400D01*
X228350Y461710D02*
Y462950D01*
X246450D01*
Y451450D02*
Y452690D01*
X228350Y451450D02*
X246450D01*
X223950Y454700D02*
Y459700D01*
X220950Y457200D02*
X223950Y456700D01*
X220950Y457200D02*
X223950Y456200D01*
X220950Y457200D02*
X223950Y455700D01*
X220950Y457200D02*
X223950Y455200D01*
X220950Y457200D02*
X223950Y454700D01*
X220950Y457200D02*
X223950Y457700D01*
X220950Y457200D02*
X223950Y458200D01*
X220950Y457200D02*
X223950Y458700D01*
X220950Y457200D02*
X223950Y459200D01*
X220950Y457200D02*
X223950Y459700D01*
X220950Y454700D02*
Y459700D01*
X219950Y457200D02*
X224490D01*
X228350Y451450D02*
Y452690D01*
X246450Y461710D02*
Y462950D01*
X290100Y470000D02*
X290940Y469134D01*
X303000Y456700D02*
X306840Y460659D01*
X315060Y469134D02*
X315900Y470000D01*
X315060Y470866D02*
X315900Y470000D01*
X303000Y483300D02*
X306840Y479341D01*
X290100Y470000D02*
X290940Y470866D01*
X299160Y460659D02*
X303000Y456700D01*
X299160Y479341D02*
X303000Y483300D01*
X165660Y423650D02*
X178950D01*
X145450Y457150D02*
X158740D01*
X162200Y462000D02*
Y465000D01*
X160700Y463500D02*
X163700D01*
X170575Y457150D02*
X178950Y448775D01*
X145450D02*
X153825Y457150D01*
X145450Y423650D02*
Y457150D01*
Y423650D02*
X158740D01*
X178950D02*
Y457150D01*
X165660D02*
X178950D01*
X130060Y423650D02*
X143350D01*
X109850Y457150D02*
X123140D01*
X126600Y462000D02*
Y465000D01*
X125100Y463500D02*
X128100D01*
X134975Y457150D02*
X143350Y448775D01*
X109850D02*
X118225Y457150D01*
X109850Y423650D02*
Y457150D01*
Y423650D02*
X123140D01*
X143350D02*
Y457150D01*
X130060D02*
X143350D01*
X219100Y352500D02*
X231300D01*
X219100Y364700D02*
X231300D01*
X458150Y431760D02*
X458900Y431327D01*
Y432193D01*
X458150Y431760D01*
X507100Y426760D02*
X469100D01*
X507100D02*
Y385860D01*
X469100D01*
Y426760D02*
Y385860D01*
D43*
X222613Y417413D02*
Y418398D01*
Y417413D02*
X223598D01*
X236787D02*
Y418398D01*
X235802Y417413D02*
X236787D01*
X235802Y431587D02*
X236787D01*
X222613D02*
X227535D01*
X222613Y430602D02*
Y431587D01*
X236787Y430602D02*
Y431587D01*
D44*
X237833Y376166D02*
X237500Y376499D01*
X236833D01*
X236500Y376166D01*
Y374833D01*
X236833Y374500D01*
X237500D01*
X237833Y374833D01*
X238499Y376499D02*
Y374500D01*
X239499D01*
X239832Y374833D01*
Y375166D01*
Y375500D01*
X239499Y375833D01*
X238499D01*
X240499D02*
Y374833D01*
X240832Y374500D01*
X241832D01*
Y374167D01*
X241498Y373834D01*
X241165D01*
X241832Y374500D02*
Y375833D01*
X242498Y373834D02*
Y375833D01*
X243498D01*
X243831Y375500D01*
Y374833D01*
X243498Y374500D01*
X242498D01*
X183667Y366333D02*
X183500Y366500D01*
X183167D01*
X183000Y366333D01*
Y365667D01*
X183167Y365500D01*
X183500D01*
X183667Y365667D01*
X184666Y366166D02*
X184166D01*
X184000Y366000D01*
Y365667D01*
X184166Y365500D01*
X184666D01*
X185166D02*
X185499D01*
X185666Y365667D01*
Y366000D01*
X185499Y366166D01*
X185166D01*
X184999Y366000D01*
Y365667D01*
X185166Y365500D01*
X185999D02*
Y366166D01*
X186166D01*
X186332Y366000D01*
Y365500D01*
Y366000D01*
X186499Y366166D01*
X186665Y366000D01*
Y365500D01*
X186999Y365167D02*
Y366166D01*
X187499D01*
X187665Y366000D01*
Y365667D01*
X187499Y365500D01*
X186999D01*
X189834Y391333D02*
X189501Y391000D01*
Y390333D01*
X189834Y390000D01*
X191167D01*
X191500Y390333D01*
Y391000D01*
X191167Y391333D01*
X190167Y393332D02*
Y392333D01*
X190500Y391999D01*
X191167D01*
X191500Y392333D01*
Y393332D01*
Y394332D02*
Y394998D01*
X191167Y395332D01*
X190500D01*
X190167Y394998D01*
Y394332D01*
X190500Y393999D01*
X191167D01*
X191500Y394332D01*
Y395998D02*
X190167D01*
Y396331D01*
X190500Y396665D01*
X191500D01*
X190500D01*
X190167Y396998D01*
X190500Y397331D01*
X191500D01*
X192166Y397997D02*
X190167D01*
Y398997D01*
X190500Y399330D01*
X191167D01*
X191500Y398997D01*
Y397997D01*
Y401330D02*
Y399997D01*
X190167Y401330D01*
X189834D01*
X189501Y400996D01*
Y400330D01*
X189834Y399997D01*
X307832Y444665D02*
X306999Y445498D01*
X305333D01*
X304500Y444665D01*
Y441333D01*
X305333Y440500D01*
X306999D01*
X307832Y441333D01*
X309498Y440500D02*
X311164D01*
X310331D01*
Y443832D01*
X309498D01*
X313664Y440500D02*
Y443832D01*
X316163D01*
X316996Y442999D01*
Y440500D01*
X169833Y461166D02*
X169500Y461499D01*
X168833D01*
X168500Y461166D01*
Y459833D01*
X168833Y459500D01*
X169500D01*
X169833Y459833D01*
X170833Y459500D02*
X171499D01*
X171832Y459833D01*
Y460500D01*
X171499Y460833D01*
X170833D01*
X170499Y460500D01*
Y459833D01*
X170833Y459500D01*
X172499Y460833D02*
Y459833D01*
X172832Y459500D01*
X173832D01*
Y460833D01*
X174831Y461166D02*
Y460833D01*
X174498D01*
X175164D01*
X174831D01*
Y459833D01*
X175164Y459500D01*
X176164Y459167D02*
X177497D01*
X178164Y459500D02*
X178830D01*
X178497D01*
Y461499D01*
X178164Y461166D01*
X134333Y462166D02*
X134000Y462499D01*
X133333D01*
X133000Y462166D01*
Y460833D01*
X133333Y460500D01*
X134000D01*
X134333Y460833D01*
X135333Y460500D02*
X135999D01*
X136332Y460833D01*
Y461500D01*
X135999Y461833D01*
X135333D01*
X134999Y461500D01*
Y460833D01*
X135333Y460500D01*
X136999Y461833D02*
Y460833D01*
X137332Y460500D01*
X138332D01*
Y461833D01*
X139331Y462166D02*
Y461833D01*
X138998D01*
X139664D01*
X139331D01*
Y460833D01*
X139664Y460500D01*
X140664Y460167D02*
X141997D01*
X143996Y460500D02*
X142664D01*
X143996Y461833D01*
Y462166D01*
X143663Y462499D01*
X142997D01*
X142664Y462166D01*
X214834Y394333D02*
X214501Y394000D01*
Y393333D01*
X214834Y393000D01*
X216167D01*
X216500Y393333D01*
Y394000D01*
X216167Y394333D01*
X216500Y394999D02*
Y395999D01*
X216167Y396332D01*
X215834Y395999D01*
Y395333D01*
X215500Y394999D01*
X215167Y395333D01*
Y396332D01*
X216500Y397998D02*
Y397332D01*
X216167Y396999D01*
X215500D01*
X215167Y397332D01*
Y397998D01*
X215500Y398332D01*
X215834D01*
Y396999D01*
X216500Y398998D02*
X215167D01*
Y399998D01*
X215500Y400331D01*
X216500D01*
Y400997D02*
Y401997D01*
X216167Y402330D01*
X215834Y401997D01*
Y401331D01*
X215500Y400997D01*
X215167Y401331D01*
Y402330D01*
X216500Y403996D02*
Y403330D01*
X216167Y402997D01*
X215500D01*
X215167Y403330D01*
Y403996D01*
X215500Y404330D01*
X215834D01*
Y402997D01*
X252834Y354833D02*
X252501Y354500D01*
Y353833D01*
X252834Y353500D01*
X254167D01*
X254500Y353833D01*
Y354500D01*
X254167Y354833D01*
X253167Y355499D02*
X254500Y356166D01*
X253167Y356832D01*
Y358832D02*
Y357832D01*
X253500Y357499D01*
X254167D01*
X254500Y357832D01*
Y358832D01*
X253167Y360831D02*
Y359831D01*
X253500Y359498D01*
X254167D01*
X254500Y359831D01*
Y360831D01*
X239500Y470498D02*
Y465500D01*
X241999D01*
X242832Y466333D01*
Y469665D01*
X241999Y470498D01*
X239500D01*
X244498Y465500D02*
X246164D01*
X245331D01*
Y470498D01*
X244498Y469665D01*
X282500Y478998D02*
Y474000D01*
X285832D01*
X287498D02*
X289164D01*
X288331D01*
Y478998D01*
X287498Y478165D01*
X238500Y424000D02*
Y428998D01*
X240166Y427332D01*
X241832Y428998D01*
Y424000D01*
X243498D02*
X245164D01*
X244331D01*
Y428998D01*
X243498Y428165D01*
X179500Y387500D02*
X177501D01*
Y388500D01*
X177834Y388833D01*
X178500D01*
X178833Y388500D01*
Y387500D01*
Y388166D02*
X179500Y388833D01*
X178167Y390832D02*
Y389833D01*
X178500Y389499D01*
X179167D01*
X179500Y389833D01*
Y390832D01*
Y391832D02*
Y392498D01*
X179167Y392832D01*
X178500D01*
X178167Y392498D01*
Y391832D01*
X178500Y391499D01*
X179167D01*
X179500Y391832D01*
Y393498D02*
X178167D01*
Y393831D01*
X178500Y394164D01*
X179500D01*
X178500D01*
X178167Y394498D01*
X178500Y394831D01*
X179500D01*
X180166Y395497D02*
X178167D01*
Y396497D01*
X178500Y396830D01*
X179167D01*
X179500Y396497D01*
Y395497D01*
X223000Y339500D02*
Y341499D01*
X224000D01*
X224333Y341166D01*
Y340500D01*
X224000Y340166D01*
X223000D01*
X223666D02*
X224333Y339500D01*
X225333D02*
Y341166D01*
Y340500D01*
X224999D01*
X225666D01*
X225333D01*
Y341166D01*
X225666Y341499D01*
X226999Y340833D02*
X227665D01*
X227998Y340500D01*
Y339500D01*
X226999D01*
X226665Y339833D01*
X226999Y340166D01*
X227998D01*
X229998Y341499D02*
Y339500D01*
X228998D01*
X228665Y339833D01*
Y340500D01*
X228998Y340833D01*
X229998D01*
X230664Y338834D02*
X230997D01*
X231331Y339167D01*
Y340833D01*
X201000Y348000D02*
Y349999D01*
X202000D01*
X202333Y349666D01*
Y349000D01*
X202000Y348666D01*
X201000D01*
X201666D02*
X202333Y348000D01*
X203333D02*
Y349666D01*
Y349000D01*
X202999D01*
X203666D01*
X203333D01*
Y349666D01*
X203666Y349999D01*
X204665D02*
Y348000D01*
X205665D01*
X205998Y348333D01*
Y348666D01*
Y349000D01*
X205665Y349333D01*
X204665D01*
X206665Y348000D02*
X207331D01*
X206998D01*
Y349999D01*
X206665Y349666D01*
X167500Y357500D02*
Y359499D01*
X168500D01*
X168833Y359166D01*
Y358500D01*
X168500Y358166D01*
X167500D01*
X168166D02*
X168833Y357500D01*
X169833D02*
Y359166D01*
Y358500D01*
X169499D01*
X170166D01*
X169833D01*
Y359166D01*
X170166Y359499D01*
X171166D02*
Y357500D01*
X172165D01*
X172498Y357833D01*
Y358166D01*
Y358500D01*
X172165Y358833D01*
X171166D01*
X174498Y357500D02*
X173165D01*
X174498Y358833D01*
Y359166D01*
X174164Y359499D01*
X173498D01*
X173165Y359166D01*
X224000Y389500D02*
Y390500D01*
X224500D01*
X224666Y390333D01*
Y390000D01*
X224500Y389833D01*
X224000D01*
X224333D02*
X224666Y389500D01*
X225000D02*
X225333D01*
X225166D01*
Y390166D01*
X225000D01*
X225833D02*
X226166Y389500D01*
X226499Y390166D01*
X226832Y389167D02*
Y390166D01*
X227332D01*
X227499Y390000D01*
Y389667D01*
X227332Y389500D01*
X226832D01*
X227832D02*
X228165D01*
X227999D01*
Y390500D01*
X227832Y390333D01*
X249000Y393500D02*
Y395499D01*
X250000D01*
X250333Y395166D01*
Y394500D01*
X250000Y394166D01*
X249000D01*
X249666D02*
X250333Y393500D01*
X250999D02*
X251666D01*
X251333D01*
Y394833D01*
X250999D01*
X252665D02*
X253332Y393500D01*
X253998Y394833D01*
X254665Y392834D02*
Y394833D01*
X255664D01*
X255998Y394500D01*
Y393833D01*
X255664Y393500D01*
X254665D01*
X257997D02*
X256664D01*
X257997Y394833D01*
Y395166D01*
X257664Y395499D01*
X256997D01*
X256664Y395166D01*
X201500Y390000D02*
X199501D01*
Y391000D01*
X199834Y391333D01*
X200500D01*
X200834Y391000D01*
Y390000D01*
Y390666D02*
X201500Y391333D01*
Y391999D02*
Y392999D01*
X201167Y393332D01*
X200834Y392999D01*
Y392333D01*
X200500Y391999D01*
X200167Y392333D01*
Y393332D01*
X201500Y393999D02*
Y394665D01*
Y394332D01*
X199501D01*
X199834Y393999D01*
X183000Y438500D02*
Y443498D01*
X185499D01*
X186332Y442665D01*
Y440999D01*
X185499Y440166D01*
X183000D01*
X184666D02*
X186332Y438500D01*
X187998D02*
X190498D01*
X191331Y439333D01*
X190498Y440166D01*
X188831D01*
X187998Y440999D01*
X188831Y441832D01*
X191331D01*
X195496Y438500D02*
X193830D01*
X192997Y439333D01*
Y440999D01*
X193830Y441832D01*
X195496D01*
X196329Y440999D01*
Y440166D01*
X192997D01*
X197995Y438500D02*
Y441832D01*
X200494D01*
X201327Y440999D01*
Y438500D01*
X202993D02*
X205493D01*
X206326Y439333D01*
X205493Y440166D01*
X203827D01*
X202993Y440999D01*
X203827Y441832D01*
X206326D01*
X210491Y438500D02*
X208825D01*
X207992Y439333D01*
Y440999D01*
X208825Y441832D01*
X210491D01*
X211324Y440999D01*
Y440166D01*
X207992D01*
X222000Y371498D02*
Y367333D01*
X222833Y366500D01*
X224499D01*
X225332Y367333D01*
Y371498D01*
X226998Y366500D02*
X228664D01*
X227831D01*
Y371498D01*
X226998Y370665D01*
X436468Y365545D02*
X437301Y364712D01*
X438967D01*
X439800Y365545D01*
Y368877D01*
X438967Y369710D01*
X437301D01*
X436468Y368877D01*
X433969Y369710D02*
Y365545D01*
Y367211D01*
X434802D01*
X433136D01*
X433969D01*
Y365545D01*
X433136Y364712D01*
X470915Y461178D02*
X471748Y462011D01*
Y463677D01*
X470915Y464510D01*
X467583D01*
X466750Y463677D01*
Y462011D01*
X467583Y461178D01*
X466750Y459512D02*
Y457845D01*
Y458679D01*
X470082D01*
Y459512D01*
X466750Y455346D02*
X470082D01*
Y452847D01*
X469249Y452014D01*
X466750D01*
X472674Y342578D02*
X473507Y343411D01*
Y345077D01*
X472674Y345910D01*
X469342D01*
X468509Y345077D01*
Y343411D01*
X469342Y342578D01*
X468509Y340079D02*
Y338412D01*
X469342Y337579D01*
X471008D01*
X471841Y338412D01*
Y340079D01*
X471008Y340912D01*
X469342D01*
X468509Y340079D01*
X471841Y335913D02*
X469342D01*
X468509Y335080D01*
Y332581D01*
X471841D01*
X472674Y330082D02*
X471841D01*
Y330915D01*
Y329249D01*
Y330082D01*
X469342D01*
X468509Y329249D01*
X420332Y400575D02*
X419499Y401408D01*
X417833D01*
X417000Y400575D01*
Y397243D01*
X417833Y396410D01*
X419499D01*
X420332Y397243D01*
X421999Y396410D02*
X424498D01*
X425331Y397243D01*
X424498Y398076D01*
X422831D01*
X421999Y398909D01*
X422831Y399742D01*
X425331D01*
X426997Y396410D02*
X429496D01*
X430329Y397243D01*
X429496Y398076D01*
X427830D01*
X426997Y398909D01*
X427830Y399742D01*
X430329D01*
X419800Y424210D02*
Y429208D01*
X422299D01*
X423132Y428375D01*
Y426709D01*
X422299Y425876D01*
X419800D01*
X421466D02*
X423132Y424210D01*
X427298D02*
X425632D01*
X424798Y425043D01*
Y426709D01*
X425632Y427542D01*
X427298D01*
X428131Y426709D01*
Y425876D01*
X424798D01*
X429797Y424210D02*
Y427542D01*
X432296D01*
X433129Y426709D01*
Y424210D01*
X434795Y429208D02*
Y424210D01*
X437294D01*
X438128Y425043D01*
Y425876D01*
Y426709D01*
X437294Y427542D01*
X434795D01*
X421300Y450710D02*
Y455708D01*
X423799D01*
X424632Y454875D01*
Y453209D01*
X423799Y452376D01*
X421300D01*
X422966D02*
X424632Y450710D01*
X428798D02*
X427132D01*
X426299Y451543D01*
Y453209D01*
X427132Y454042D01*
X428798D01*
X429631Y453209D01*
Y452376D01*
X426299D01*
X431297Y450710D02*
Y454042D01*
X433796D01*
X434629Y453209D01*
Y450710D01*
X437128Y454875D02*
Y454042D01*
X436295D01*
X437961D01*
X437128D01*
Y451543D01*
X437961Y450710D01*
X413300Y371210D02*
Y376208D01*
X415799D01*
X416632Y375375D01*
Y373709D01*
X415799Y372876D01*
X413300D01*
X414966D02*
X416632Y371210D01*
X419132D02*
Y375375D01*
Y373709D01*
X418298D01*
X419965D01*
X419132D01*
Y375375D01*
X419965Y376208D01*
X422464D02*
Y371210D01*
X424963D01*
X425796Y372043D01*
Y372876D01*
Y373709D01*
X424963Y374542D01*
X422464D01*
X427462Y376208D02*
Y371210D01*
X429961D01*
X430794Y372043D01*
Y372876D01*
Y373709D01*
X429961Y374542D01*
X427462D01*
X472800Y376710D02*
Y381708D01*
X475299D01*
X476132Y380875D01*
Y379209D01*
X475299Y378376D01*
X472800D01*
X474466D02*
X476132Y376710D01*
X478631D02*
Y380875D01*
Y379209D01*
X477799D01*
X479465D01*
X478631D01*
Y380875D01*
X479465Y381708D01*
X481964D02*
Y376710D01*
X484463D01*
X485296Y377543D01*
Y378376D01*
Y379209D01*
X484463Y380042D01*
X481964D01*
X487795Y380875D02*
Y380042D01*
X486962D01*
X488628D01*
X487795D01*
Y377543D01*
X488628Y376710D01*
X449000Y440010D02*
X453999D01*
Y437511D01*
X453165Y436678D01*
X451499D01*
X450666Y437511D01*
Y440010D01*
Y438344D02*
X449000Y436678D01*
Y434179D02*
Y432512D01*
X449833Y431679D01*
X451499D01*
X452332Y432512D01*
Y434179D01*
X451499Y435012D01*
X449833D01*
X449000Y434179D01*
Y430013D02*
X452332D01*
Y427514D01*
X451499Y426681D01*
X449000D01*
X514798Y408710D02*
X510633D01*
X509800Y407877D01*
Y406211D01*
X510633Y405378D01*
X514798D01*
X509800Y403712D02*
Y402045D01*
Y402879D01*
X514798D01*
X513965Y403712D01*
D45*
X456889Y362882D02*
Y350538D01*
X460059Y362882D02*
X456889D01*
X460059Y350538D02*
X456889D01*
X475129D02*
X471958D01*
X475129Y362882D02*
X471958D01*
X475129D02*
Y350538D01*
X371716Y380377D02*
X372299Y380961D01*
Y382127D01*
X371716Y382710D01*
X369383D01*
X368800Y382127D01*
Y380961D01*
X369383Y380377D01*
X368800Y378628D02*
Y377462D01*
X369383Y376878D01*
X370550D01*
X371133Y377462D01*
Y378628D01*
X370550Y379211D01*
X369383D01*
X368800Y378628D01*
Y373963D02*
X372299D01*
X370550Y375712D01*
Y373380D01*
X382801Y391712D02*
X383801Y390712D01*
X385800D01*
X386800Y391712D01*
Y395710D01*
X385800Y396710D01*
X383801D01*
X382801Y395710D01*
Y393711D01*
X384801D01*
X380802Y392711D02*
Y396710D01*
Y394711D01*
X379802Y393711D01*
X378803Y392711D01*
X377803D01*
X373804Y396710D02*
X371805D01*
X370805Y395710D01*
Y393711D01*
X371805Y392711D01*
X373804D01*
X374804Y393711D01*
Y395710D01*
X373804Y396710D01*
X368806Y392711D02*
Y395710D01*
X367806Y396710D01*
X364807D01*
Y392711D01*
X362808Y396710D02*
Y392711D01*
X359809D01*
X358809Y393711D01*
Y396710D01*
X352811Y390712D02*
Y396710D01*
X355810D01*
X356810Y395710D01*
Y393711D01*
X355810Y392711D01*
X352811D01*
X428633Y360126D02*
X428050Y360709D01*
X426883D01*
X426300Y360126D01*
Y357793D01*
X426883Y357210D01*
X428050D01*
X428633Y357793D01*
X430382Y357210D02*
Y360126D01*
Y358959D01*
X429799D01*
X430965D01*
X430382D01*
Y360126D01*
X430965Y360709D01*
X433298Y357210D02*
Y360126D01*
Y358959D01*
X432715D01*
X433881D01*
X433298D01*
Y360126D01*
X433881Y360709D01*
X357298Y355210D02*
X353299D01*
X351300Y353211D01*
X353299Y351211D01*
X357298D01*
Y346213D02*
Y348212D01*
X356298Y349212D01*
X352300D01*
X351300Y348212D01*
Y346213D01*
X352300Y345213D01*
X356298D01*
X357298Y346213D01*
Y343214D02*
X352300D01*
X351300Y342214D01*
Y340215D01*
X352300Y339215D01*
X357298D01*
Y337216D02*
Y333217D01*
Y335216D01*
X351300D01*
X392216Y421377D02*
X392799Y421961D01*
Y423127D01*
X392216Y423710D01*
X389883D01*
X389300Y423127D01*
Y421961D01*
X389883Y421377D01*
X389300Y420211D02*
Y419045D01*
Y419628D01*
X391633D01*
Y420211D01*
X389300Y417295D02*
X391633D01*
Y415546D01*
X391050Y414963D01*
X389300D01*
Y413797D02*
Y412630D01*
Y413213D01*
X392799D01*
X392216Y413797D01*
M02*
